<svg height="22" viewBox="0 0 22 22" width="22" xmlns="http://www.w3.org/2000/svg"><g fill="none" fill-rule="evenodd"><path d="m0 0h22v22h-22z" fill="#fff" fill-opacity=".01"/><path d="m14.7198 8.6975c.041-2.094-1.656-3.832-3.769-3.864-2.135-.032-3.862 1.666-3.882 3.817-.019 2.057 1.694 3.817 3.743 3.845 2.139.03 3.866-1.649 3.908-3.798m5.075.174c-.028 2.481-.889 4.591-2.646 6.335-1.887 1.874-3.761 3.762-5.641 5.641-.569.571-.653.571-1.237-.014-1.909-1.91-3.821-3.818-5.724-5.734-4.6-4.633-2.693-12.579 3.51-14.631 5.341-1.768 10.857 1.653 11.671 7.247.056.385.047.781.067 1.156" fill="#52c1ef"/></g></svg>