<svg height="70" viewBox="0 0 114 70" width="114" xmlns="http://www.w3.org/2000/svg" xmlns:xlink="http://www.w3.org/1999/xlink"><mask id="a" fill="#fff"><path d="m.0001.8302h56.805v68.1698h-56.805z" fill="#fff" fill-rule="evenodd"/></mask><g fill="#fff" fill-rule="evenodd"><path d="m102.4457 15.5743c-10.917-8.156-28.388-14.573-45.639-14.573v1.894c18.3 0 33.137 14.412 33.137 32.19 0 17.78-14.837 32.19-33.137 32.19v1.895c17.251 0 34.722-6.419 45.639-14.574 7.319-5.468 11.167-12.355 11.167-19.511 0-7.154-3.848-14.043-11.167-19.511"/><path d="m56.8051 67.1062c-18.302 0-33.135-14.413-33.135-32.191 0-17.779 14.833-32.19 33.135-32.19v-1.895c-17.25 0-34.72 6.419-45.638 14.574-7.319 5.469-11.167 12.356-11.167 19.511 0 7.154 3.848 14.043 11.167 19.511 10.918 8.156 28.388 14.574 45.638 14.574z" mask="url(#a)" transform="translate(0 .1703)"/><path d="m83.0981 29.3629c1.521 0 2.755-1.234 2.755-2.754 0-1.521-1.234-2.755-2.755-2.755s-2.755 1.234-2.755 2.755c0 1.52 1.234 2.754 2.755 2.754zm2.514 12.312v-11.178h-6.599v1.783h1.571v9.395h-1.571v1.783h8.171v-1.783zm-37.535-12.312c1.52 0 2.752-1.234 2.752-2.754 0-1.521-1.232-2.755-2.752-2.755-1.522 0-2.755 1.234-2.755 2.755 0 1.52 1.233 2.754 2.755 2.754zm2.513 1.134h-6.6v1.783h1.571v9.395h-1.571v1.783h8.17v-1.783h-1.57zm-10.429 11.018h-5.268v-7.291h2.674v1.781h2.28v-5.508h-2.28v1.783h-2.674v-6.319h4.954v2.591h2.277v-4.535h-14.779v1.944h1.731v15.554h-1.731v1.943h15.094v-4.86h-2.278zm31.658-1.867c0 1.382-.573 1.726-.986 1.726-.666 0-1.087-.517-1.087-1.741 0-1.882.727-2.87 1.476-2.87.361 0 .597.244.597.724zm4.699-5.328c0-3.149-2.338-4.146-4.037-4.146-1.982 0-3.61.81-4.337 1.523v-1.2h-1.777v3.745h1.627c.265-.714 1.27-1.991 2.552-1.991.701 0 1.273.47 1.273 1.709v1.425c-.583-.43-1.462-.749-2.422-.749-1.49 0-3.908 1.362-3.908 4.814 0 2.413 1.183 4.31 3.554 4.31 1.143 0 2.193-.544 2.776-1.508v1.206h6.01v-1.781h-1.311zm-15.527.885c-1.511-.805-3.242-1.276-3.242-2.254 0-.53.35-1.085 1.266-1.085 1.419 0 2.93 1.318 3.302 2.358h1.662v-3.727h-1.808v1.2c-.979-.95-2.48-1.523-3.769-1.523-2.568 0-4.886 1.354-4.886 3.759 0 1.881.902 3.066 2.936 4.137 2.542 1.341 3.613 1.74 3.613 2.787 0 .685-.585 1.05-1.252 1.05-1.084 0-2.738-.852-3.271-2.499h-1.886v4.05h1.886v-1.206c1.007.898 2.703 1.53 3.886 1.53 3.583 0 4.865-2.312 4.865-4.081 0-2.687-1.759-3.673-3.302-4.496z"/></g></svg>