<svg height="22" viewBox="0 0 22 22" width="22" xmlns="http://www.w3.org/2000/svg" xmlns:xlink="http://www.w3.org/1999/xlink"><mask id="a" fill="#fff"><path d="m.5066.441h16.598v8.0894h-16.598z" fill="#fff" fill-rule="evenodd"/></mask><mask id="b" fill="#fff"><path d="m.8332.6344h16.227v5.3656h-16.227z" fill="#fff" fill-rule="evenodd"/></mask><g fill="none" fill-rule="evenodd"><path d="m0 0h22v22h-22z" fill="#fff" fill-opacity=".01"/><g fill="#52c1ef"><path d="m2.0002 5.8966c1.785 1.662 3.57 3.325 5.385 5.016-.22.218-.417.421-.621.618-1.475 1.424-2.951 2.847-4.432 4.264-.082.079-.22.098-.332.145z"/><path d="m19.6476 15.7823c-.476-.422-.96-.835-1.427-1.268-1.255-1.162-2.502-2.333-3.755-3.499-.056-.051-.134-.081-.247-.146 1.855-1.78 3.642-3.494 5.429-5.208z"/><path d="m8.8366 8.5304c-2.795-2.608-5.562-5.191-8.33-7.773.002-.048.005-.096.007-.144.33-.057.661-.162.992-.163 4.012-.011 8.024-.007 12.037-.007.901 0 1.803-.008 2.705.005.25.003.5.062.857.11-2.799 2.7-5.515 5.317-8.268 7.972" mask="url(#a)" transform="translate(2 4)"/><path d="m.8332 5.9464c1.837-1.771 3.619-3.489 5.422-5.228.701.65 1.379 1.279 2.059 1.908.426.393.647.393 1.071-.012.678-.649 1.351-1.304 2.053-1.98 1.858 1.735 3.698 3.454 5.622 5.25-.309.047-.528.111-.748.112-4.979.005-9.959.004-14.939.002-.152 0-.303-.029-.54-.052" mask="url(#b)" transform="translate(2 11)"/></g></g></svg>