<svg height="22" viewBox="0 0 22 22" width="22" xmlns="http://www.w3.org/2000/svg" xmlns:xlink="http://www.w3.org/1999/xlink"><mask id="a" fill="#fff"><path d="m3.0002 3h15.5118v15.5069546h-15.5118z" fill="#fff" fill-rule="evenodd"/></mask><g fill="none" fill-rule="evenodd" transform="translate(0 .000727)"><path d="m0-.000727h22v22h-22z" fill="#fff" fill-opacity=".01"/><path d="m3.0002 6.78107307c.039-1.236.488-2.286 1.316-3.146.54-.559 1.306-.615 2.04-.63507307.133-.00392693.32.15707307.4.29107307.606 1.014 1.194 2.042 1.785 3.066.194.337.083.63-.175.866-.398.366-.821.704-1.222 1.066-.595.536-.585.683-.208 1.389 1.143 2.14300003 2.782 3.77400003 4.925 4.91400003.679.36.83.362 1.351-.219.362-.403.705-.821 1.067-1.222.303-.335.639-.338 1.022-.109.89.532 1.785 1.057 2.694 1.556.432.237.549.524.51 1.027-.142 1.812-1.73 2.497-3.043 2.807-.706.166-1.392.032-2.074-.168-4.184-1.224-7.161-3.921-9.185-7.692-.55-1.02400003-.784-2.21900003-1.152-3.33900003-.05-.148-.037-.318-.051-.452" fill="#52c1ef" mask="url(#a)"/></g></svg>